<svg xmlns="http://www.w3.org/2000/svg"  viewBox="0 0 48 48" width="48px" height="48px"><path fill="#6c19ff" d="M24,3c11.046,0,20,8.954,20,20s-8.954,20-20,20S4,34.046,4,23c0-6,3-8,3-8S8.966,3,24,3z"/><circle cx="24" cy="25" r="17" fill="#2100c4"/><circle cx="40.5" cy="32.5" r="4.5" fill="#f5bc00"/><circle cx="7.5" cy="32.5" r="4.5" fill="#f5bc00"/><path fill="#f5bc00" d="M24,12c-9.389,0-17,7.611-17,17s7.611,17,17,17s17-7.611,17-17S33.389,12,24,12z"/><path fill="#2100c4" d="M27.935,39.426C27.623,38.293,25.987,37,24,37s-3.623,1.293-3.935,2.426 C20.026,39.544,20,39.669,20,39.8c0,0.663,0,1.2,0,1.2c0.8,0,7.2,0,8,0c0,0,0-0.537,0-1.2C28,39.669,27.974,39.544,27.935,39.426z"/><circle cx="31" cy="28" r="6" fill="#fafafa"/><circle cx="16" cy="28" r="6" fill="#fafafa"/><circle cx="31" cy="29" r="2" fill="#2100c4"/><circle cx="16" cy="29" r="2" fill="#2100c4"/></svg>